<svg id="visual" viewBox="0 0 960 540" width="960" height="540" xmlns="http://www.w3.org/2000/svg" xmlns:xlink="http://www.w3.org/1999/xlink" version="1.1"><path d="M0 215L17.8 225.2C35.7 235.3 71.3 255.7 106.8 261.7C142.3 267.7 177.7 259.3 213.2 249C248.7 238.7 284.3 226.3 320 227C355.7 227.7 391.3 241.3 426.8 250.8C462.3 260.3 497.7 265.7 533.2 263.2C568.7 260.7 604.3 250.3 640 250.7C675.7 251 711.3 262 746.8 261.3C782.3 260.7 817.7 248.3 853.2 247.3C888.7 246.3 924.3 256.7 942.2 261.8L960 267L960 541L942.2 541C924.3 541 888.7 541 853.2 541C817.7 541 782.3 541 746.8 541C711.3 541 675.7 541 640 541C604.3 541 568.7 541 533.2 541C497.7 541 462.3 541 426.8 541C391.3 541 355.7 541 320 541C284.3 541 248.7 541 213.2 541C177.7 541 142.3 541 106.8 541C71.3 541 35.7 541 17.8 541L0 541Z" fill="#b0bebf"></path><path d="M0 324L17.8 328.3C35.7 332.7 71.3 341.3 106.8 347.3C142.3 353.3 177.7 356.7 213.2 353.3C248.7 350 284.3 340 320 336.3C355.7 332.7 391.3 335.3 426.8 342.8C462.3 350.3 497.7 362.7 533.2 365.5C568.7 368.3 604.3 361.7 640 350.8C675.7 340 711.3 325 746.8 328.5C782.3 332 817.7 354 853.2 357.7C888.7 361.3 924.3 346.7 942.2 339.3L960 332L960 541L942.2 541C924.3 541 888.7 541 853.2 541C817.7 541 782.3 541 746.8 541C711.3 541 675.7 541 640 541C604.3 541 568.7 541 533.2 541C497.7 541 462.3 541 426.8 541C391.3 541 355.7 541 320 541C284.3 541 248.7 541 213.2 541C177.7 541 142.3 541 106.8 541C71.3 541 35.7 541 17.8 541L0 541Z" fill="#768485"></path><path d="M0 462L17.8 456.2C35.7 450.3 71.3 438.7 106.8 431.7C142.3 424.7 177.7 422.3 213.2 419.5C248.7 416.7 284.3 413.3 320 418.2C355.7 423 391.3 436 426.8 436.7C462.3 437.3 497.7 425.7 533.2 420C568.7 414.3 604.3 414.7 640 416.3C675.7 418 711.3 421 746.8 428.2C782.3 435.3 817.7 446.7 853.2 447C888.7 447.3 924.3 436.7 942.2 431.3L960 426L960 541L942.2 541C924.3 541 888.7 541 853.2 541C817.7 541 782.3 541 746.8 541C711.3 541 675.7 541 640 541C604.3 541 568.7 541 533.2 541C497.7 541 462.3 541 426.8 541C391.3 541 355.7 541 320 541C284.3 541 248.7 541 213.2 541C177.7 541 142.3 541 106.8 541C71.3 541 35.7 541 17.8 541L0 541Z" fill="#404e4f"></path></svg>